<mxfile host="app.diagrams.net" modified="2022-09-27T09:21:25.774Z" agent="5.0 (Macintosh; Intel Mac OS X 10_15_7) AppleWebKit/537.36 (KHTML, like Gecko) Chrome/105.0.0.0 Safari/537.36" etag="aIfydpGPkabHu54ylwwV" version="20.3.6" type="github">
  <diagram id="LMt7x0jr8g_JAWhQvIyH" name="Page-1">
    <mxGraphModel dx="1653" dy="834" grid="1" gridSize="10" guides="1" tooltips="1" connect="1" arrows="1" fold="1" page="1" pageScale="1" pageWidth="827" pageHeight="1169" math="0" shadow="0">
      <root>
        <mxCell id="0" />
        <mxCell id="1" parent="0" />
        <mxCell id="BBmIzJIcI-N4-tjBfzWn-5" value="" style="edgeStyle=orthogonalEdgeStyle;rounded=0;orthogonalLoop=1;jettySize=auto;html=1;fontSize=18;" edge="1" parent="1" source="BBmIzJIcI-N4-tjBfzWn-1" target="BBmIzJIcI-N4-tjBfzWn-4">
          <mxGeometry relative="1" as="geometry" />
        </mxCell>
        <mxCell id="BBmIzJIcI-N4-tjBfzWn-1" value="&lt;font style=&quot;font-size: 18px;&quot;&gt;扫描待测任务数量&lt;/font&gt;" style="rounded=0;whiteSpace=wrap;html=1;" vertex="1" parent="1">
          <mxGeometry x="375" y="210" width="170" height="60" as="geometry" />
        </mxCell>
        <mxCell id="BBmIzJIcI-N4-tjBfzWn-7" value="" style="edgeStyle=orthogonalEdgeStyle;rounded=0;orthogonalLoop=1;jettySize=auto;html=1;fontSize=18;" edge="1" parent="1" source="BBmIzJIcI-N4-tjBfzWn-4" target="BBmIzJIcI-N4-tjBfzWn-6">
          <mxGeometry relative="1" as="geometry" />
        </mxCell>
        <mxCell id="BBmIzJIcI-N4-tjBfzWn-16" style="edgeStyle=orthogonalEdgeStyle;rounded=0;orthogonalLoop=1;jettySize=auto;html=1;fontSize=18;entryX=0.992;entryY=0.653;entryDx=0;entryDy=0;entryPerimeter=0;" edge="1" parent="1" source="BBmIzJIcI-N4-tjBfzWn-4" target="BBmIzJIcI-N4-tjBfzWn-15">
          <mxGeometry relative="1" as="geometry">
            <mxPoint x="730" y="840" as="targetPoint" />
            <Array as="points">
              <mxPoint x="730" y="390" />
              <mxPoint x="730" y="839" />
            </Array>
          </mxGeometry>
        </mxCell>
        <mxCell id="BBmIzJIcI-N4-tjBfzWn-4" value="待测任务数量&amp;lt;60" style="rhombus;whiteSpace=wrap;html=1;fontSize=18;" vertex="1" parent="1">
          <mxGeometry x="325" y="350" width="270" height="80" as="geometry" />
        </mxCell>
        <mxCell id="BBmIzJIcI-N4-tjBfzWn-9" value="" style="edgeStyle=orthogonalEdgeStyle;rounded=0;orthogonalLoop=1;jettySize=auto;html=1;fontSize=18;" edge="1" parent="1" source="BBmIzJIcI-N4-tjBfzWn-6" target="BBmIzJIcI-N4-tjBfzWn-8">
          <mxGeometry relative="1" as="geometry" />
        </mxCell>
        <mxCell id="BBmIzJIcI-N4-tjBfzWn-6" value="以流水线id为关键字段，在后一万条测试id中随机寻找任务" style="whiteSpace=wrap;html=1;fontSize=18;" vertex="1" parent="1">
          <mxGeometry x="342.5" y="470" width="235" height="60" as="geometry" />
        </mxCell>
        <mxCell id="BBmIzJIcI-N4-tjBfzWn-11" value="" style="edgeStyle=orthogonalEdgeStyle;rounded=0;orthogonalLoop=1;jettySize=auto;html=1;fontSize=18;" edge="1" parent="1" source="BBmIzJIcI-N4-tjBfzWn-8" target="BBmIzJIcI-N4-tjBfzWn-10">
          <mxGeometry relative="1" as="geometry" />
        </mxCell>
        <mxCell id="BBmIzJIcI-N4-tjBfzWn-17" style="edgeStyle=orthogonalEdgeStyle;rounded=0;orthogonalLoop=1;jettySize=auto;html=1;fontSize=18;entryX=-0.001;entryY=0.647;entryDx=0;entryDy=0;entryPerimeter=0;startArrow=none;" edge="1" parent="1" source="BBmIzJIcI-N4-tjBfzWn-18" target="BBmIzJIcI-N4-tjBfzWn-6">
          <mxGeometry relative="1" as="geometry">
            <mxPoint x="280" y="510" as="targetPoint" />
            <Array as="points">
              <mxPoint x="270" y="510" />
              <mxPoint x="342" y="510" />
            </Array>
          </mxGeometry>
        </mxCell>
        <mxCell id="BBmIzJIcI-N4-tjBfzWn-8" value="检测任务是否满足测试条件" style="whiteSpace=wrap;html=1;fontSize=18;" vertex="1" parent="1">
          <mxGeometry x="400" y="585" width="120" height="60" as="geometry" />
        </mxCell>
        <mxCell id="BBmIzJIcI-N4-tjBfzWn-12" style="edgeStyle=orthogonalEdgeStyle;rounded=0;orthogonalLoop=1;jettySize=auto;html=1;fontSize=18;exitX=0;exitY=0.5;exitDx=0;exitDy=0;" edge="1" parent="1" source="BBmIzJIcI-N4-tjBfzWn-10">
          <mxGeometry relative="1" as="geometry">
            <mxPoint x="320" y="390" as="targetPoint" />
            <Array as="points">
              <mxPoint x="210" y="720" />
              <mxPoint x="210" y="390" />
            </Array>
          </mxGeometry>
        </mxCell>
        <mxCell id="BBmIzJIcI-N4-tjBfzWn-10" value="添加测试任务" style="whiteSpace=wrap;html=1;fontSize=18;" vertex="1" parent="1">
          <mxGeometry x="400" y="690" width="120" height="60" as="geometry" />
        </mxCell>
        <mxCell id="BBmIzJIcI-N4-tjBfzWn-15" value="end" style="rounded=0;whiteSpace=wrap;html=1;fontSize=18;" vertex="1" parent="1">
          <mxGeometry x="400" y="800" width="120" height="60" as="geometry" />
        </mxCell>
        <mxCell id="BBmIzJIcI-N4-tjBfzWn-18" value="&lt;font style=&quot;font-size: 12px;&quot;&gt;重新查找待测任务&lt;/font&gt;" style="text;html=1;align=center;verticalAlign=middle;resizable=0;points=[];autosize=1;strokeColor=none;fillColor=none;fontSize=18;" vertex="1" parent="1">
          <mxGeometry x="270" y="580" width="120" height="40" as="geometry" />
        </mxCell>
        <mxCell id="BBmIzJIcI-N4-tjBfzWn-19" value="" style="edgeStyle=orthogonalEdgeStyle;rounded=0;orthogonalLoop=1;jettySize=auto;html=1;fontSize=18;entryX=0.002;entryY=-0.04;entryDx=0;entryDy=0;entryPerimeter=0;endArrow=none;" edge="1" parent="1" source="BBmIzJIcI-N4-tjBfzWn-8" target="BBmIzJIcI-N4-tjBfzWn-18">
          <mxGeometry relative="1" as="geometry">
            <mxPoint x="342.2650000000001" y="508.82000000000016" as="targetPoint" />
            <mxPoint x="400" y="615.04" as="sourcePoint" />
            <Array as="points">
              <mxPoint x="270" y="615" />
            </Array>
          </mxGeometry>
        </mxCell>
        <mxCell id="BBmIzJIcI-N4-tjBfzWn-20" value="统计待测任务数量" style="text;html=1;align=center;verticalAlign=middle;resizable=0;points=[];autosize=1;strokeColor=none;fillColor=none;fontSize=12;" vertex="1" parent="1">
          <mxGeometry x="100" y="530" width="120" height="30" as="geometry" />
        </mxCell>
      </root>
    </mxGraphModel>
  </diagram>
</mxfile>
